<mxfile host="app.diagrams.net" agent="Mozilla/5.0 (Windows NT 10.0; Win64; x64) AppleWebKit/537.36 (KHTML, like Gecko) Chrome/135.0.0.0 Safari/537.36 Edg/135.0.0.0" version="26.2.9">
  <diagram name="PÃ¡gina-1" id="ZvY7RlKto1usyJ_V8Ote">
    <mxGraphModel dx="1345" dy="577" grid="1" gridSize="10" guides="1" tooltips="1" connect="1" arrows="0" fold="1" page="1" pageScale="1" pageWidth="827" pageHeight="1169" math="0" shadow="0">
      <root>
        <mxCell id="0" />
        <mxCell id="1" parent="0" />
        <mxCell id="pYvZ6EQq_U6aykrmB1s--96" value="S3" style="edgeStyle=none;rounded=0;orthogonalLoop=1;jettySize=auto;html=1;exitX=0.5;exitY=1;exitDx=0;exitDy=0;fontSize=15;" edge="1" parent="1" source="pYvZ6EQq_U6aykrmB1s--72">
          <mxGeometry x="1" y="10" relative="1" as="geometry">
            <mxPoint x="735" y="470" as="targetPoint" />
            <mxPoint x="-10" y="10" as="offset" />
          </mxGeometry>
        </mxCell>
        <mxCell id="pYvZ6EQq_U6aykrmB1s--118" value="A3" style="edgeStyle=none;rounded=0;orthogonalLoop=1;jettySize=auto;html=1;exitX=0.25;exitY=0;exitDx=0;exitDy=0;endArrow=none;startFill=1;startArrow=classic;fontSize=15;" edge="1" parent="1" source="pYvZ6EQq_U6aykrmB1s--72">
          <mxGeometry x="1" y="10" relative="1" as="geometry">
            <mxPoint x="723" y="350" as="targetPoint" />
            <mxPoint x="10" y="-9" as="offset" />
          </mxGeometry>
        </mxCell>
        <mxCell id="pYvZ6EQq_U6aykrmB1s--119" value="B3" style="edgeStyle=none;rounded=0;orthogonalLoop=1;jettySize=auto;html=1;exitX=0.75;exitY=0;exitDx=0;exitDy=0;endArrow=none;startFill=1;startArrow=classic;fontSize=15;" edge="1" parent="1" source="pYvZ6EQq_U6aykrmB1s--72">
          <mxGeometry x="1" y="10" relative="1" as="geometry">
            <mxPoint x="748" y="350" as="targetPoint" />
            <mxPoint x="10" y="-10" as="offset" />
          </mxGeometry>
        </mxCell>
        <mxCell id="pYvZ6EQq_U6aykrmB1s--146" value="&lt;font style=&quot;font-size: 15px;&quot;&gt;Cout&lt;/font&gt;" style="edgeStyle=none;rounded=0;orthogonalLoop=1;jettySize=auto;html=1;exitX=0;exitY=0.5;exitDx=0;exitDy=0;" edge="1" parent="1" source="pYvZ6EQq_U6aykrmB1s--72">
          <mxGeometry x="0.331" y="-15" relative="1" as="geometry">
            <mxPoint x="680" y="405.0689655172414" as="targetPoint" />
            <mxPoint as="offset" />
          </mxGeometry>
        </mxCell>
        <mxCell id="pYvZ6EQq_U6aykrmB1s--72" value="Full&lt;div&gt;Adder&lt;/div&gt;" style="whiteSpace=wrap;html=1;aspect=fixed;fontSize=15;fillColor=#dae8fc;strokeColor=#6c8ebf;" vertex="1" parent="1">
          <mxGeometry x="710" y="380" width="50" height="50" as="geometry" />
        </mxCell>
        <mxCell id="pYvZ6EQq_U6aykrmB1s--87" style="edgeStyle=none;rounded=0;orthogonalLoop=1;jettySize=auto;html=1;exitX=0;exitY=0.5;exitDx=0;exitDy=0;entryX=1;entryY=0.5;entryDx=0;entryDy=0;endArrow=none;startFill=0;fontSize=15;" edge="1" parent="1" source="pYvZ6EQq_U6aykrmB1s--73" target="pYvZ6EQq_U6aykrmB1s--72">
          <mxGeometry relative="1" as="geometry" />
        </mxCell>
        <mxCell id="pYvZ6EQq_U6aykrmB1s--97" value="S2" style="edgeStyle=none;rounded=0;orthogonalLoop=1;jettySize=auto;html=1;exitX=0.5;exitY=1;exitDx=0;exitDy=0;fontSize=15;" edge="1" parent="1" source="pYvZ6EQq_U6aykrmB1s--73">
          <mxGeometry x="1" y="10" relative="1" as="geometry">
            <mxPoint x="825" y="470" as="targetPoint" />
            <mxPoint x="-10" y="10" as="offset" />
          </mxGeometry>
        </mxCell>
        <mxCell id="pYvZ6EQq_U6aykrmB1s--116" value="A2" style="edgeStyle=none;rounded=0;orthogonalLoop=1;jettySize=auto;html=1;exitX=0.25;exitY=0;exitDx=0;exitDy=0;endArrow=none;startFill=1;startArrow=classic;fontSize=15;" edge="1" parent="1" source="pYvZ6EQq_U6aykrmB1s--73">
          <mxGeometry x="1" y="10" relative="1" as="geometry">
            <mxPoint x="813" y="350" as="targetPoint" />
            <mxPoint x="10" y="-9" as="offset" />
          </mxGeometry>
        </mxCell>
        <mxCell id="pYvZ6EQq_U6aykrmB1s--117" value="B2" style="edgeStyle=none;rounded=0;orthogonalLoop=1;jettySize=auto;html=1;exitX=0.75;exitY=0;exitDx=0;exitDy=0;endArrow=none;startFill=1;startArrow=classic;fontSize=15;" edge="1" parent="1" source="pYvZ6EQq_U6aykrmB1s--73">
          <mxGeometry x="1" y="10" relative="1" as="geometry">
            <mxPoint x="838" y="350" as="targetPoint" />
            <mxPoint x="10" y="-9" as="offset" />
          </mxGeometry>
        </mxCell>
        <mxCell id="pYvZ6EQq_U6aykrmB1s--73" value="Full&lt;div&gt;Adder&lt;/div&gt;" style="whiteSpace=wrap;html=1;aspect=fixed;fontSize=15;fillColor=#dae8fc;strokeColor=#6c8ebf;" vertex="1" parent="1">
          <mxGeometry x="800" y="380" width="50" height="50" as="geometry" />
        </mxCell>
        <mxCell id="pYvZ6EQq_U6aykrmB1s--86" style="edgeStyle=none;rounded=0;orthogonalLoop=1;jettySize=auto;html=1;exitX=0;exitY=0.5;exitDx=0;exitDy=0;entryX=1;entryY=0.5;entryDx=0;entryDy=0;endArrow=none;startFill=0;fontSize=15;" edge="1" parent="1" source="pYvZ6EQq_U6aykrmB1s--74" target="pYvZ6EQq_U6aykrmB1s--73">
          <mxGeometry relative="1" as="geometry" />
        </mxCell>
        <mxCell id="pYvZ6EQq_U6aykrmB1s--98" value="S1" style="edgeStyle=none;rounded=0;orthogonalLoop=1;jettySize=auto;html=1;exitX=0.5;exitY=1;exitDx=0;exitDy=0;fontSize=15;" edge="1" parent="1" source="pYvZ6EQq_U6aykrmB1s--74">
          <mxGeometry x="1" y="10" relative="1" as="geometry">
            <mxPoint x="915" y="470" as="targetPoint" />
            <mxPoint x="-10" y="10" as="offset" />
          </mxGeometry>
        </mxCell>
        <mxCell id="pYvZ6EQq_U6aykrmB1s--114" value="A1" style="edgeStyle=none;rounded=0;orthogonalLoop=1;jettySize=auto;html=1;exitX=0.25;exitY=0;exitDx=0;exitDy=0;endArrow=none;startFill=1;startArrow=classic;fontSize=15;" edge="1" parent="1" source="pYvZ6EQq_U6aykrmB1s--74">
          <mxGeometry x="1" y="10" relative="1" as="geometry">
            <mxPoint x="903" y="350" as="targetPoint" />
            <mxPoint x="10" y="-9" as="offset" />
          </mxGeometry>
        </mxCell>
        <mxCell id="pYvZ6EQq_U6aykrmB1s--115" value="B1" style="edgeStyle=none;rounded=0;orthogonalLoop=1;jettySize=auto;html=1;exitX=0.75;exitY=0;exitDx=0;exitDy=0;endArrow=none;startFill=1;startArrow=classic;fontSize=15;" edge="1" parent="1" source="pYvZ6EQq_U6aykrmB1s--74">
          <mxGeometry x="1" y="-10" relative="1" as="geometry">
            <mxPoint x="928" y="350" as="targetPoint" />
            <mxPoint x="-8" y="-10" as="offset" />
          </mxGeometry>
        </mxCell>
        <mxCell id="pYvZ6EQq_U6aykrmB1s--74" value="Full&lt;div&gt;Adder&lt;/div&gt;" style="whiteSpace=wrap;html=1;aspect=fixed;fontSize=15;fillColor=#dae8fc;strokeColor=#6c8ebf;" vertex="1" parent="1">
          <mxGeometry x="890" y="380" width="50" height="50" as="geometry" />
        </mxCell>
        <mxCell id="pYvZ6EQq_U6aykrmB1s--85" style="edgeStyle=none;rounded=0;orthogonalLoop=1;jettySize=auto;html=1;exitX=0;exitY=0.5;exitDx=0;exitDy=0;entryX=1;entryY=0.5;entryDx=0;entryDy=0;endArrow=none;startFill=0;fontSize=15;" edge="1" parent="1" source="pYvZ6EQq_U6aykrmB1s--75" target="pYvZ6EQq_U6aykrmB1s--74">
          <mxGeometry relative="1" as="geometry" />
        </mxCell>
        <mxCell id="pYvZ6EQq_U6aykrmB1s--88" style="edgeStyle=none;rounded=0;orthogonalLoop=1;jettySize=auto;html=1;exitX=1;exitY=0.5;exitDx=0;exitDy=0;startArrow=block;startFill=1;endArrow=none;fontSize=15;" edge="1" parent="1" source="pYvZ6EQq_U6aykrmB1s--75">
          <mxGeometry relative="1" as="geometry">
            <mxPoint x="1060" y="405" as="targetPoint" />
          </mxGeometry>
        </mxCell>
        <mxCell id="pYvZ6EQq_U6aykrmB1s--103" value="Cin" style="edgeLabel;html=1;align=center;verticalAlign=middle;resizable=0;points=[];fontSize=15;" vertex="1" connectable="0" parent="pYvZ6EQq_U6aykrmB1s--88">
          <mxGeometry x="0.4" y="4" relative="1" as="geometry">
            <mxPoint y="-11" as="offset" />
          </mxGeometry>
        </mxCell>
        <mxCell id="pYvZ6EQq_U6aykrmB1s--99" value="S0" style="edgeStyle=none;rounded=0;orthogonalLoop=1;jettySize=auto;html=1;exitX=0.5;exitY=1;exitDx=0;exitDy=0;fontSize=15;" edge="1" parent="1" source="pYvZ6EQq_U6aykrmB1s--75">
          <mxGeometry x="1" y="10" relative="1" as="geometry">
            <mxPoint x="1005" y="470" as="targetPoint" />
            <mxPoint x="-10" y="10" as="offset" />
          </mxGeometry>
        </mxCell>
        <mxCell id="pYvZ6EQq_U6aykrmB1s--112" value="A0" style="edgeStyle=none;rounded=0;orthogonalLoop=1;jettySize=auto;html=1;exitX=0.25;exitY=0;exitDx=0;exitDy=0;fontSize=15;endArrow=none;startFill=1;startArrow=classic;" edge="1" parent="1" source="pYvZ6EQq_U6aykrmB1s--75">
          <mxGeometry x="1" y="10" relative="1" as="geometry">
            <mxPoint x="993" y="350" as="targetPoint" />
            <mxPoint x="10" y="-9" as="offset" />
          </mxGeometry>
        </mxCell>
        <mxCell id="pYvZ6EQq_U6aykrmB1s--113" value="B0" style="edgeStyle=none;rounded=0;orthogonalLoop=1;jettySize=auto;html=1;exitX=0.75;exitY=0;exitDx=0;exitDy=0;fontSize=15;endArrow=none;startFill=1;startArrow=classic;" edge="1" parent="1" source="pYvZ6EQq_U6aykrmB1s--75">
          <mxGeometry x="1" y="10" relative="1" as="geometry">
            <mxPoint x="1018" y="350" as="targetPoint" />
            <mxPoint x="10" y="-9" as="offset" />
          </mxGeometry>
        </mxCell>
        <mxCell id="pYvZ6EQq_U6aykrmB1s--75" value="Full&lt;div&gt;Adder&lt;/div&gt;" style="whiteSpace=wrap;html=1;aspect=fixed;fontSize=15;fillColor=#dae8fc;strokeColor=#6c8ebf;" vertex="1" parent="1">
          <mxGeometry x="980" y="380" width="50" height="50" as="geometry" />
        </mxCell>
      </root>
    </mxGraphModel>
  </diagram>
</mxfile>
